<svg width="400.000000" height="400.000000" viewBox="0 0 400 400" fill="none" xmlns="http://www.w3.org/2000/svg" xmlns:xlink="http://www.w3.org/1999/xlink">
	<desc>
			Created with Pixso.
	</desc>
	<defs/>
	<path id="logo-hei" d="M60 7.62939e-06L340 0C373.137 0 400 26.8629 400 60L400 340C400 373.137 373.137 400 340 400L60 400C26.8629 400 0 373.137 0 340L0 60C0 26.8629 26.8629 7.62939e-06 60 7.62939e-06ZM285.5 45L215.785 165.75L355.215 165.75L285.5 45ZM119 199C79.7878 199 48 230.788 48 270C48 309.212 79.7878 341 119 341C158.212 341 190 309.212 190 270C190 230.788 158.212 199 119 199ZM352 200L218 200L218 334L352 334L352 200Z" clip-rule="evenodd" fill="#000000" fill-opacity="1.000000" fill-rule="evenodd"/>
</svg>
